<mxfile host="app.diagrams.net" modified="2024-05-09T11:12:43.785Z" agent="Mozilla/5.0 (Windows NT 10.0; Win64; x64) AppleWebKit/537.36 (KHTML, like Gecko) Chrome/124.0.0.0 Safari/537.36 Edg/124.0.0.0" etag="-eBpftbInNHckuxtjYlA" version="24.3.1" type="device">
  <diagram name="PÃ¡gina-1" id="PTaU9UPacZL9F430mjfD">
    <mxGraphModel dx="1386" dy="793" grid="1" gridSize="10" guides="1" tooltips="1" connect="1" arrows="1" fold="1" page="1" pageScale="1" pageWidth="827" pageHeight="1169" math="0" shadow="0">
      <root>
        <mxCell id="0" />
        <mxCell id="1" parent="0" />
        <mxCell id="mTvcn5c1xsZi8lV0LpWr-14" value="Fim" style="strokeWidth=2;html=1;shape=mxgraph.flowchart.terminator;whiteSpace=wrap;" parent="1" vertex="1">
          <mxGeometry x="374" y="1480" width="100" height="60" as="geometry" />
        </mxCell>
        <mxCell id="mTvcn5c1xsZi8lV0LpWr-18" value="" style="edgeStyle=orthogonalEdgeStyle;rounded=0;orthogonalLoop=1;jettySize=auto;html=1;" parent="1" source="mTvcn5c1xsZi8lV0LpWr-16" edge="1">
          <mxGeometry relative="1" as="geometry">
            <mxPoint x="414" y="150" as="targetPoint" />
          </mxGeometry>
        </mxCell>
        <mxCell id="mTvcn5c1xsZi8lV0LpWr-16" value="Inicio" style="strokeWidth=2;html=1;shape=mxgraph.flowchart.terminator;whiteSpace=wrap;" parent="1" vertex="1">
          <mxGeometry x="364" y="20" width="100" height="60" as="geometry" />
        </mxCell>
        <mxCell id="CdlXuyK48Img5EnvGftB-8" value="" style="edgeStyle=orthogonalEdgeStyle;rounded=0;orthogonalLoop=1;jettySize=auto;html=1;" parent="1" source="CdlXuyK48Img5EnvGftB-4" target="CdlXuyK48Img5EnvGftB-7" edge="1">
          <mxGeometry relative="1" as="geometry" />
        </mxCell>
        <mxCell id="CdlXuyK48Img5EnvGftB-4" value="aluno1" style="html=1;strokeWidth=2;shape=manualInput;whiteSpace=wrap;rounded=1;size=26;arcSize=11;" parent="1" vertex="1">
          <mxGeometry x="364" y="240" width="100" height="60" as="geometry" />
        </mxCell>
        <mxCell id="CdlXuyK48Img5EnvGftB-5" value="Digite o nome do aluno" style="strokeWidth=2;html=1;shape=mxgraph.flowchart.display;whiteSpace=wrap;" parent="1" vertex="1">
          <mxGeometry x="360" y="150" width="100" height="60" as="geometry" />
        </mxCell>
        <mxCell id="CdlXuyK48Img5EnvGftB-6" style="edgeStyle=orthogonalEdgeStyle;rounded=0;orthogonalLoop=1;jettySize=auto;html=1;entryX=0.46;entryY=0.233;entryDx=0;entryDy=0;entryPerimeter=0;" parent="1" source="CdlXuyK48Img5EnvGftB-5" target="CdlXuyK48Img5EnvGftB-4" edge="1">
          <mxGeometry relative="1" as="geometry" />
        </mxCell>
        <mxCell id="CdlXuyK48Img5EnvGftB-7" value="digite a primeira note" style="strokeWidth=2;html=1;shape=mxgraph.flowchart.display;whiteSpace=wrap;" parent="1" vertex="1">
          <mxGeometry x="364" y="340" width="100" height="60" as="geometry" />
        </mxCell>
        <mxCell id="CdlXuyK48Img5EnvGftB-9" value="nota1" style="html=1;strokeWidth=2;shape=manualInput;whiteSpace=wrap;rounded=1;size=26;arcSize=11;" parent="1" vertex="1">
          <mxGeometry x="370" y="430" width="100" height="60" as="geometry" />
        </mxCell>
        <mxCell id="CdlXuyK48Img5EnvGftB-10" style="edgeStyle=orthogonalEdgeStyle;rounded=0;orthogonalLoop=1;jettySize=auto;html=1;entryX=0.44;entryY=0.183;entryDx=0;entryDy=0;entryPerimeter=0;" parent="1" source="CdlXuyK48Img5EnvGftB-7" target="CdlXuyK48Img5EnvGftB-9" edge="1">
          <mxGeometry relative="1" as="geometry" />
        </mxCell>
        <mxCell id="CdlXuyK48Img5EnvGftB-11" value="digite a segunda note" style="strokeWidth=2;html=1;shape=mxgraph.flowchart.display;whiteSpace=wrap;" parent="1" vertex="1">
          <mxGeometry x="370" y="525" width="100" height="60" as="geometry" />
        </mxCell>
        <mxCell id="CdlXuyK48Img5EnvGftB-12" value="nota2" style="html=1;strokeWidth=2;shape=manualInput;whiteSpace=wrap;rounded=1;size=26;arcSize=11;" parent="1" vertex="1">
          <mxGeometry x="370" y="620" width="100" height="60" as="geometry" />
        </mxCell>
        <mxCell id="CdlXuyK48Img5EnvGftB-13" value="digite a terceira note" style="strokeWidth=2;html=1;shape=mxgraph.flowchart.display;whiteSpace=wrap;" parent="1" vertex="1">
          <mxGeometry x="370" y="720" width="100" height="60" as="geometry" />
        </mxCell>
        <mxCell id="CdlXuyK48Img5EnvGftB-23" value="" style="edgeStyle=orthogonalEdgeStyle;rounded=0;orthogonalLoop=1;jettySize=auto;html=1;" parent="1" source="CdlXuyK48Img5EnvGftB-14" target="CdlXuyK48Img5EnvGftB-20" edge="1">
          <mxGeometry relative="1" as="geometry">
            <Array as="points">
              <mxPoint x="420" y="900" />
              <mxPoint x="420" y="900" />
            </Array>
          </mxGeometry>
        </mxCell>
        <mxCell id="CdlXuyK48Img5EnvGftB-14" value="nota3" style="html=1;strokeWidth=2;shape=manualInput;whiteSpace=wrap;rounded=1;size=26;arcSize=11;" parent="1" vertex="1">
          <mxGeometry x="370" y="810" width="100" height="60" as="geometry" />
        </mxCell>
        <mxCell id="CdlXuyK48Img5EnvGftB-15" style="edgeStyle=orthogonalEdgeStyle;rounded=0;orthogonalLoop=1;jettySize=auto;html=1;entryX=0.5;entryY=0;entryDx=0;entryDy=0;entryPerimeter=0;" parent="1" source="CdlXuyK48Img5EnvGftB-9" target="CdlXuyK48Img5EnvGftB-11" edge="1">
          <mxGeometry relative="1" as="geometry" />
        </mxCell>
        <mxCell id="CdlXuyK48Img5EnvGftB-16" style="edgeStyle=orthogonalEdgeStyle;rounded=0;orthogonalLoop=1;jettySize=auto;html=1;entryX=0.5;entryY=0.217;entryDx=0;entryDy=0;entryPerimeter=0;" parent="1" source="CdlXuyK48Img5EnvGftB-11" target="CdlXuyK48Img5EnvGftB-12" edge="1">
          <mxGeometry relative="1" as="geometry" />
        </mxCell>
        <mxCell id="CdlXuyK48Img5EnvGftB-17" style="edgeStyle=orthogonalEdgeStyle;rounded=0;orthogonalLoop=1;jettySize=auto;html=1;entryX=0.5;entryY=0;entryDx=0;entryDy=0;entryPerimeter=0;" parent="1" source="CdlXuyK48Img5EnvGftB-12" target="CdlXuyK48Img5EnvGftB-13" edge="1">
          <mxGeometry relative="1" as="geometry" />
        </mxCell>
        <mxCell id="CdlXuyK48Img5EnvGftB-18" style="edgeStyle=orthogonalEdgeStyle;rounded=0;orthogonalLoop=1;jettySize=auto;html=1;entryX=0.5;entryY=0.2;entryDx=0;entryDy=0;entryPerimeter=0;" parent="1" source="CdlXuyK48Img5EnvGftB-13" target="CdlXuyK48Img5EnvGftB-14" edge="1">
          <mxGeometry relative="1" as="geometry" />
        </mxCell>
        <mxCell id="-dtMV65CBr5hYyhzN8Be-1" style="edgeStyle=orthogonalEdgeStyle;rounded=0;orthogonalLoop=1;jettySize=auto;html=1;entryX=0.5;entryY=0;entryDx=0;entryDy=0;" edge="1" parent="1" source="CdlXuyK48Img5EnvGftB-20" target="CdlXuyK48Img5EnvGftB-21">
          <mxGeometry relative="1" as="geometry" />
        </mxCell>
        <mxCell id="CdlXuyK48Img5EnvGftB-20" value="media = (nota 1 + nota 2 + nota3)/3" style="rounded=0;whiteSpace=wrap;html=1;" parent="1" vertex="1">
          <mxGeometry x="364" y="910" width="120" height="60" as="geometry" />
        </mxCell>
        <mxCell id="CdlXuyK48Img5EnvGftB-21" value="resultado &amp;gt;=6" style="rhombus;whiteSpace=wrap;html=1;" parent="1" vertex="1">
          <mxGeometry x="364" y="1000" width="120" height="120" as="geometry" />
        </mxCell>
        <mxCell id="CdlXuyK48Img5EnvGftB-34" value="" style="edgeStyle=orthogonalEdgeStyle;rounded=0;orthogonalLoop=1;jettySize=auto;html=1;" parent="1" source="CdlXuyK48Img5EnvGftB-26" target="CdlXuyK48Img5EnvGftB-28" edge="1">
          <mxGeometry relative="1" as="geometry" />
        </mxCell>
        <mxCell id="CdlXuyK48Img5EnvGftB-26" value="aprovado" style="shape=display;whiteSpace=wrap;html=1;" parent="1" vertex="1">
          <mxGeometry x="359" y="1180" width="130" height="65" as="geometry" />
        </mxCell>
        <mxCell id="CdlXuyK48Img5EnvGftB-27" value="Reprovado" style="shape=display;whiteSpace=wrap;html=1;" parent="1" vertex="1">
          <mxGeometry x="540" y="1177.5" width="140" height="70" as="geometry" />
        </mxCell>
        <mxCell id="CdlXuyK48Img5EnvGftB-28" value="" style="ellipse;whiteSpace=wrap;html=1;aspect=fixed;" parent="1" vertex="1">
          <mxGeometry x="384" y="1320" width="80" height="80" as="geometry" />
        </mxCell>
        <mxCell id="CdlXuyK48Img5EnvGftB-29" style="edgeStyle=orthogonalEdgeStyle;rounded=0;orthogonalLoop=1;jettySize=auto;html=1;" parent="1" source="CdlXuyK48Img5EnvGftB-21" edge="1">
          <mxGeometry relative="1" as="geometry">
            <mxPoint x="424" y="1180" as="targetPoint" />
          </mxGeometry>
        </mxCell>
        <mxCell id="CdlXuyK48Img5EnvGftB-40" style="edgeStyle=orthogonalEdgeStyle;rounded=0;orthogonalLoop=1;jettySize=auto;html=1;entryX=0.5;entryY=0;entryDx=0;entryDy=0;entryPerimeter=0;" parent="1" source="CdlXuyK48Img5EnvGftB-28" target="mTvcn5c1xsZi8lV0LpWr-14" edge="1">
          <mxGeometry relative="1" as="geometry" />
        </mxCell>
        <mxCell id="CdlXuyK48Img5EnvGftB-41" style="edgeStyle=orthogonalEdgeStyle;rounded=0;orthogonalLoop=1;jettySize=auto;html=1;exitX=0;exitY=0;exitDx=70;exitDy=70;exitPerimeter=0;entryX=0.988;entryY=0.638;entryDx=0;entryDy=0;entryPerimeter=0;" parent="1" source="CdlXuyK48Img5EnvGftB-27" target="CdlXuyK48Img5EnvGftB-28" edge="1">
          <mxGeometry relative="1" as="geometry" />
        </mxCell>
        <mxCell id="CdlXuyK48Img5EnvGftB-42" style="edgeStyle=orthogonalEdgeStyle;rounded=0;orthogonalLoop=1;jettySize=auto;html=1;entryX=0;entryY=0;entryDx=70;entryDy=0;entryPerimeter=0;" parent="1" source="CdlXuyK48Img5EnvGftB-21" target="CdlXuyK48Img5EnvGftB-27" edge="1">
          <mxGeometry relative="1" as="geometry" />
        </mxCell>
        <mxCell id="-dtMV65CBr5hYyhzN8Be-2" value="Verdadeiro" style="text;html=1;align=center;verticalAlign=middle;whiteSpace=wrap;rounded=0;" vertex="1" parent="1">
          <mxGeometry x="330" y="1139" width="60" height="30" as="geometry" />
        </mxCell>
        <mxCell id="-dtMV65CBr5hYyhzN8Be-4" value="Falso" style="text;html=1;align=center;verticalAlign=middle;whiteSpace=wrap;rounded=0;" vertex="1" parent="1">
          <mxGeometry x="520" y="1020" width="60" height="30" as="geometry" />
        </mxCell>
      </root>
    </mxGraphModel>
  </diagram>
</mxfile>
